<svg width="15" height="15" viewBox="0 0 15 15" fill="none" xmlns="http://www.w3.org/2000/svg">
<path d="M1.875 5.625V3.75C1.875 3.25272 2.07254 2.77581 2.42417 2.42417C2.77581 2.07254 3.25272 1.875 3.75 1.875H11.25C11.7473 1.875 12.2242 2.07254 12.5758 2.42417C12.9275 2.77581 13.125 3.25272 13.125 3.75V11.25C13.125 11.7473 12.9275 12.2242 12.5758 12.5758C12.2242 12.9275 11.7473 13.125 11.25 13.125H9.375" stroke="#757DA2" stroke-width="1.66667" stroke-linecap="round"/>
<path d="M10 5V4.375H10.625V5H10ZM6.37938 9.50437C6.26151 9.61822 6.10363 9.68122 5.93976 9.6798C5.77589 9.67837 5.61913 9.61264 5.50325 9.49676C5.38737 9.38088 5.32164 9.22412 5.32021 9.06025C5.31879 8.89638 5.38179 8.7385 5.49564 8.62062L6.37938 9.50437ZM9.37501 8.75V5H10.625V8.75H9.37501ZM10 5.625H6.25001V4.375H10V5.625ZM10.4419 5.44187L6.37938 9.50437L5.49564 8.62062L9.55813 4.55813L10.4419 5.44187Z" fill="#757DA2"/>
<path d="M5 8.75H3.125C2.43464 8.75 1.875 9.30964 1.875 10V11.875C1.875 12.5654 2.43464 13.125 3.125 13.125H5C5.69036 13.125 6.25 12.5654 6.25 11.875V10C6.25 9.30964 5.69036 8.75 5 8.75Z" stroke="#757DA2" stroke-width="1.66667" stroke-linecap="round"/>
</svg>
