<svg width="21" height="20" viewBox="0 0 21 20" fill="none" xmlns="http://www.w3.org/2000/svg">
<g clip-path="url(#clip0_101_86)">
<path d="M13.7637 2.51248C14.2119 2.06364 14.8138 1.80228 15.4474 1.78139C16.0809 1.76049 16.6987 1.98164 17.1754 2.39998L17.2952 2.51248L17.8837 3.10165C18.3317 3.55033 18.5926 4.1528 18.6135 4.78693C18.6343 5.42106 18.4136 6.03941 17.996 6.51665L17.8837 6.63665L8.55182 15.9808C8.41988 16.1129 8.26004 16.2137 8.08406 16.2758L7.94923 16.315L4.24212 17.1716C4.11225 17.2017 3.97708 17.2001 3.84795 17.167C3.71882 17.1339 3.59951 17.0703 3.50003 16.9815C3.40055 16.8926 3.32381 16.7812 3.27625 16.6565C3.22869 16.5319 3.2117 16.3976 3.2267 16.265L3.24335 16.1708L4.09813 12.4583C4.14036 12.2762 4.22284 12.1059 4.3395 11.96L4.43189 11.8558L13.7637 2.51248ZM13.1753 5.45831L5.69284 12.95L5.16349 15.2483L7.459 14.7175L14.9415 7.22581L13.1753 5.45831ZM16.1183 3.69081C15.975 3.54733 15.7843 3.46114 15.5821 3.44841C15.3798 3.43567 15.1798 3.49727 15.0197 3.62165L14.9415 3.69081L14.3522 4.27998L16.1183 6.04748L16.7068 5.45831C16.8501 5.31482 16.9362 5.1239 16.9489 4.92138C16.9616 4.71886 16.9001 4.51865 16.7759 4.35831L16.7068 4.27998L16.1183 3.69081Z" fill="white"/>
</g>
<defs>
<clipPath id="clip0_101_86">
<rect width="19.9754" height="20" fill="white" transform="translate(0.417664)"/>
</clipPath>
</defs>
</svg>
