<svg width="15" height="15" viewBox="0 0 15 15" fill="none" xmlns="http://www.w3.org/2000/svg">
<path d="M1.25 2.34375C1.25 1.74 1.74 1.25 2.34375 1.25H12.6562C13.26 1.25 13.75 1.74 13.75 2.34375V12.6562C13.75 12.9463 13.6348 13.2245 13.4296 13.4296C13.2245 13.6348 12.9463 13.75 12.6562 13.75H2.34375C2.05367 13.75 1.77547 13.6348 1.57035 13.4296C1.36523 13.2245 1.25 12.9463 1.25 12.6562V2.34375ZM5.625 5.625V12.8125H12.6562C12.6977 12.8125 12.7374 12.796 12.7667 12.7667C12.796 12.7374 12.8125 12.6977 12.8125 12.6562V5.625H5.625ZM12.8125 4.6875V2.34375C12.8125 2.30231 12.796 2.26257 12.7667 2.23326C12.7374 2.20396 12.6977 2.1875 12.6562 2.1875H5.625V4.6875H12.8125ZM2.1875 5.625V12.6562C2.1875 12.7425 2.2575 12.8125 2.34375 12.8125H4.6875V5.625H2.1875ZM4.6875 4.6875V2.1875H2.34375C2.30231 2.1875 2.26257 2.20396 2.23326 2.23326C2.20396 2.26257 2.1875 2.30231 2.1875 2.34375V4.6875H4.6875Z" fill="#757DA2"/>
</svg>
